<?xml version="1.0" encoding="UTF-8"?>
<svg xmlns="http://www.w3.org/2000/svg" xmlns:xlink="http://www.w3.org/1999/xlink" width="600pt" height="450pt" viewBox="0 0 600 450" version="1.1">
<defs>
<g>
<symbol overflow="visible" id="myH5NumE0-0">
<path style="stroke:none;" d="M 0.59375 2.125 L 0.59375 -8.46875 L 6.59375 -8.46875 L 6.59375 2.125 Z M 1.265625 1.453125 L 5.9375 1.453125 L 5.9375 -7.78125 L 1.265625 -7.78125 Z M 1.265625 1.453125 "/>
</symbol>
<symbol overflow="visible" id="myH5NumE0-1">
<path style="stroke:none;" d="M 0.59375 -3.765625 L 3.75 -3.765625 L 3.75 -2.8125 L 0.59375 -2.8125 Z M 0.59375 -3.765625 "/>
</symbol>
<symbol overflow="visible" id="myH5NumE0-2">
<path style="stroke:none;" d="M 2.296875 -1 L 6.4375 -1 L 6.4375 0 L 0.875 0 L 0.875 -1 C 1.320312 -1.457031 1.929688 -2.078125 2.703125 -2.859375 C 3.484375 -3.648438 3.972656 -4.160156 4.171875 -4.390625 C 4.554688 -4.804688 4.820312 -5.160156 4.96875 -5.453125 C 5.125 -5.753906 5.203125 -6.046875 5.203125 -6.328125 C 5.203125 -6.796875 5.035156 -7.175781 4.703125 -7.46875 C 4.378906 -7.757812 3.957031 -7.90625 3.4375 -7.90625 C 3.0625 -7.90625 2.664062 -7.84375 2.25 -7.71875 C 1.84375 -7.59375 1.40625 -7.394531 0.9375 -7.125 L 0.9375 -8.328125 C 1.414062 -8.515625 1.859375 -8.65625 2.265625 -8.75 C 2.679688 -8.851562 3.0625 -8.90625 3.40625 -8.90625 C 4.3125 -8.90625 5.035156 -8.675781 5.578125 -8.21875 C 6.117188 -7.769531 6.390625 -7.164062 6.390625 -6.40625 C 6.390625 -6.050781 6.320312 -5.710938 6.1875 -5.390625 C 6.050781 -5.066406 5.804688 -4.6875 5.453125 -4.25 C 5.347656 -4.132812 5.035156 -3.804688 4.515625 -3.265625 C 3.992188 -2.722656 3.253906 -1.96875 2.296875 -1 Z M 2.296875 -1 "/>
</symbol>
<symbol overflow="visible" id="myH5NumE0-3">
<path style="stroke:none;" d="M 1.484375 -1 L 3.421875 -1 L 3.421875 -7.671875 L 1.3125 -7.25 L 1.3125 -8.328125 L 3.40625 -8.75 L 4.59375 -8.75 L 4.59375 -1 L 6.53125 -1 L 6.53125 0 L 1.484375 0 Z M 1.484375 -1 "/>
</symbol>
<symbol overflow="visible" id="myH5NumE1-0">
<path style="stroke:none;" d="M 0.59375 2.125 L 0.59375 -8.46875 L 6.59375 -8.46875 L 6.59375 2.125 Z M 1.265625 1.453125 L 5.9375 1.453125 L 5.9375 -7.78125 L 1.265625 -7.78125 Z M 1.265625 1.453125 "/>
</symbol>
<symbol overflow="visible" id="myH5NumE1-1">
<path style="stroke:none;" d="M 3.8125 -7.96875 C 3.207031 -7.96875 2.75 -7.664062 2.4375 -7.0625 C 2.132812 -6.46875 1.984375 -5.566406 1.984375 -4.359375 C 1.984375 -3.160156 2.132812 -2.257812 2.4375 -1.65625 C 2.75 -1.0625 3.207031 -0.765625 3.8125 -0.765625 C 4.425781 -0.765625 4.882812 -1.0625 5.1875 -1.65625 C 5.5 -2.257812 5.65625 -3.160156 5.65625 -4.359375 C 5.65625 -5.566406 5.5 -6.46875 5.1875 -7.0625 C 4.882812 -7.664062 4.425781 -7.96875 3.8125 -7.96875 Z M 3.8125 -8.90625 C 4.789062 -8.90625 5.539062 -8.515625 6.0625 -7.734375 C 6.582031 -6.960938 6.84375 -5.835938 6.84375 -4.359375 C 6.84375 -2.890625 6.582031 -1.765625 6.0625 -0.984375 C 5.539062 -0.210938 4.789062 0.171875 3.8125 0.171875 C 2.832031 0.171875 2.082031 -0.210938 1.5625 -0.984375 C 1.050781 -1.765625 0.796875 -2.890625 0.796875 -4.359375 C 0.796875 -5.835938 1.050781 -6.960938 1.5625 -7.734375 C 2.082031 -8.515625 2.832031 -8.90625 3.8125 -8.90625 Z M 3.8125 -8.90625 "/>
</symbol>
<symbol overflow="visible" id="myH5NumE2-0">
<path style="stroke:none;" d="M 0.59375 2.125 L 0.59375 -8.46875 L 6.59375 -8.46875 L 6.59375 2.125 Z M 1.265625 1.453125 L 5.9375 1.453125 L 5.9375 -7.78125 L 1.265625 -7.78125 Z M 1.265625 1.453125 "/>
</symbol>
<symbol overflow="visible" id="myH5NumE2-1">
<path style="stroke:none;" d="M 2.296875 -1 L 6.4375 -1 L 6.4375 0 L 0.875 0 L 0.875 -1 C 1.320312 -1.457031 1.929688 -2.078125 2.703125 -2.859375 C 3.484375 -3.648438 3.972656 -4.160156 4.171875 -4.390625 C 4.554688 -4.804688 4.820312 -5.160156 4.96875 -5.453125 C 5.125 -5.753906 5.203125 -6.046875 5.203125 -6.328125 C 5.203125 -6.796875 5.035156 -7.175781 4.703125 -7.46875 C 4.378906 -7.757812 3.957031 -7.90625 3.4375 -7.90625 C 3.0625 -7.90625 2.664062 -7.84375 2.25 -7.71875 C 1.84375 -7.59375 1.40625 -7.394531 0.9375 -7.125 L 0.9375 -8.328125 C 1.414062 -8.515625 1.859375 -8.65625 2.265625 -8.75 C 2.679688 -8.851562 3.0625 -8.90625 3.40625 -8.90625 C 4.3125 -8.90625 5.035156 -8.675781 5.578125 -8.21875 C 6.117188 -7.769531 6.390625 -7.164062 6.390625 -6.40625 C 6.390625 -6.050781 6.320312 -5.710938 6.1875 -5.390625 C 6.050781 -5.066406 5.804688 -4.6875 5.453125 -4.25 C 5.347656 -4.132812 5.035156 -3.804688 4.515625 -3.265625 C 3.992188 -2.722656 3.253906 -1.96875 2.296875 -1 Z M 2.296875 -1 "/>
</symbol>
<symbol overflow="visible" id="myH5NumE3-0">
<path style="stroke:none;" d="M 0.59375 2.125 L 0.59375 -8.46875 L 6.59375 -8.46875 L 6.59375 2.125 Z M 1.265625 1.453125 L 5.9375 1.453125 L 5.9375 -7.78125 L 1.265625 -7.78125 Z M 1.265625 1.453125 "/>
</symbol>
<symbol overflow="visible" id="myH5NumE3-1">
<path style="stroke:none;" d="M 0.59375 -3.765625 L 3.75 -3.765625 L 3.75 -2.8125 L 0.59375 -2.8125 Z M 0.59375 -3.765625 "/>
</symbol>
<symbol overflow="visible" id="myH5NumE4-0">
<path style="stroke:none;" d="M 0.59375 2.125 L 0.59375 -8.46875 L 6.59375 -8.46875 L 6.59375 2.125 Z M 1.265625 1.453125 L 5.9375 1.453125 L 5.9375 -7.78125 L 1.265625 -7.78125 Z M 1.265625 1.453125 "/>
</symbol>
<symbol overflow="visible" id="myH5NumE4-1">
<path style="stroke:none;" d="M 2.296875 -1 L 6.4375 -1 L 6.4375 0 L 0.875 0 L 0.875 -1 C 1.320312 -1.457031 1.929688 -2.078125 2.703125 -2.859375 C 3.484375 -3.648438 3.972656 -4.160156 4.171875 -4.390625 C 4.554688 -4.804688 4.820312 -5.160156 4.96875 -5.453125 C 5.125 -5.753906 5.203125 -6.046875 5.203125 -6.328125 C 5.203125 -6.796875 5.035156 -7.175781 4.703125 -7.46875 C 4.378906 -7.757812 3.957031 -7.90625 3.4375 -7.90625 C 3.0625 -7.90625 2.664062 -7.84375 2.25 -7.71875 C 1.84375 -7.59375 1.40625 -7.394531 0.9375 -7.125 L 0.9375 -8.328125 C 1.414062 -8.515625 1.859375 -8.65625 2.265625 -8.75 C 2.679688 -8.851562 3.0625 -8.90625 3.40625 -8.90625 C 4.3125 -8.90625 5.035156 -8.675781 5.578125 -8.21875 C 6.117188 -7.769531 6.390625 -7.164062 6.390625 -6.40625 C 6.390625 -6.050781 6.320312 -5.710938 6.1875 -5.390625 C 6.050781 -5.066406 5.804688 -4.6875 5.453125 -4.25 C 5.347656 -4.132812 5.035156 -3.804688 4.515625 -3.265625 C 3.992188 -2.722656 3.253906 -1.96875 2.296875 -1 Z M 2.296875 -1 "/>
</symbol>
<symbol overflow="visible" id="myH5NumE5-0">
<path style="stroke:none;" d="M 0.59375 2.125 L 0.59375 -8.46875 L 6.59375 -8.46875 L 6.59375 2.125 Z M 1.265625 1.453125 L 5.9375 1.453125 L 5.9375 -7.78125 L 1.265625 -7.78125 Z M 1.265625 1.453125 "/>
</symbol>
<symbol overflow="visible" id="myH5NumE5-1">
<path style="stroke:none;" d="M 0.59375 -3.765625 L 3.75 -3.765625 L 3.75 -2.8125 L 0.59375 -2.8125 Z M 0.59375 -3.765625 "/>
</symbol>
<symbol overflow="visible" id="myH5NumE6-0">
<path style="stroke:none;" d="M 0.59375 2.125 L 0.59375 -8.46875 L 6.59375 -8.46875 L 6.59375 2.125 Z M 1.265625 1.453125 L 5.9375 1.453125 L 5.9375 -7.78125 L 1.265625 -7.78125 Z M 1.265625 1.453125 "/>
</symbol>
<symbol overflow="visible" id="myH5NumE6-1">
<path style="stroke:none;" d="M 3.8125 -7.96875 C 3.207031 -7.96875 2.75 -7.664062 2.4375 -7.0625 C 2.132812 -6.46875 1.984375 -5.566406 1.984375 -4.359375 C 1.984375 -3.160156 2.132812 -2.257812 2.4375 -1.65625 C 2.75 -1.0625 3.207031 -0.765625 3.8125 -0.765625 C 4.425781 -0.765625 4.882812 -1.0625 5.1875 -1.65625 C 5.5 -2.257812 5.65625 -3.160156 5.65625 -4.359375 C 5.65625 -5.566406 5.5 -6.46875 5.1875 -7.0625 C 4.882812 -7.664062 4.425781 -7.96875 3.8125 -7.96875 Z M 3.8125 -8.90625 C 4.789062 -8.90625 5.539062 -8.515625 6.0625 -7.734375 C 6.582031 -6.960938 6.84375 -5.835938 6.84375 -4.359375 C 6.84375 -2.890625 6.582031 -1.765625 6.0625 -0.984375 C 5.539062 -0.210938 4.789062 0.171875 3.8125 0.171875 C 2.832031 0.171875 2.082031 -0.210938 1.5625 -0.984375 C 1.050781 -1.765625 0.796875 -2.890625 0.796875 -4.359375 C 0.796875 -5.835938 1.050781 -6.960938 1.5625 -7.734375 C 2.082031 -8.515625 2.832031 -8.90625 3.8125 -8.90625 Z M 3.8125 -8.90625 "/>
</symbol>
<symbol overflow="visible" id="myH5NumE7-0">
<path style="stroke:none;" d="M 0.59375 2.125 L 0.59375 -8.46875 L 6.59375 -8.46875 L 6.59375 2.125 Z M 1.265625 1.453125 L 5.9375 1.453125 L 5.9375 -7.78125 L 1.265625 -7.78125 Z M 1.265625 1.453125 "/>
</symbol>
<symbol overflow="visible" id="myH5NumE7-1">
<path style="stroke:none;" d="M 1.484375 -1 L 3.421875 -1 L 3.421875 -7.671875 L 1.3125 -7.25 L 1.3125 -8.328125 L 3.40625 -8.75 L 4.59375 -8.75 L 4.59375 -1 L 6.53125 -1 L 6.53125 0 L 1.484375 0 Z M 1.484375 -1 "/>
</symbol>
<symbol overflow="visible" id="myH5NumE8-0">
<path style="stroke:none;" d=""/>
</symbol>
<symbol overflow="visible" id="myH5NumE8-1">
<path style="stroke:none;" d="M 5.859375 -1.71875 C 5.859375 -1.84375 5.765625 -1.84375 5.671875 -1.84375 C 5.53125 -1.84375 5.515625 -1.828125 5.453125 -1.625 C 5.140625 -0.59375 4.53125 -0.125 4.03125 -0.125 C 3.796875 -0.125 3.46875 -0.28125 3.46875 -0.90625 C 3.46875 -1.1875 3.59375 -1.703125 3.703125 -2.109375 L 4.109375 -3.75 C 4.265625 -4.375 4.59375 -5.046875 5.15625 -5.046875 C 5.203125 -5.046875 5.5 -5.046875 5.6875 -4.875 C 5.203125 -4.75 5.203125 -4.296875 5.203125 -4.296875 C 5.203125 -4.140625 5.3125 -3.90625 5.625 -3.90625 C 5.84375 -3.90625 6.21875 -4.078125 6.21875 -4.546875 C 6.21875 -5.15625 5.515625 -5.296875 5.171875 -5.296875 C 4.515625 -5.296875 4.109375 -4.71875 4 -4.484375 C 3.734375 -5.203125 3.140625 -5.296875 2.84375 -5.296875 C 1.640625 -5.296875 1 -3.734375 1 -3.453125 C 1 -3.34375 1.109375 -3.34375 1.171875 -3.34375 C 1.328125 -3.34375 1.328125 -3.34375 1.390625 -3.546875 C 1.71875 -4.578125 2.34375 -5.046875 2.8125 -5.046875 C 3.171875 -5.046875 3.390625 -4.765625 3.390625 -4.28125 C 3.390625 -4 3.25 -3.40625 3.140625 -2.96875 L 2.875 -1.875 C 2.671875 -1.09375 2.421875 -0.125 1.703125 -0.125 C 1.671875 -0.125 1.375 -0.125 1.171875 -0.296875 C 1.53125 -0.390625 1.640625 -0.703125 1.640625 -0.875 C 1.640625 -1.1875 1.390625 -1.265625 1.234375 -1.265625 C 0.9375 -1.265625 0.640625 -1.015625 0.640625 -0.609375 C 0.640625 -0.140625 1.140625 0.125 1.6875 0.125 C 2.265625 0.125 2.65625 -0.328125 2.875 -0.6875 C 3.109375 0 3.703125 0.125 4.015625 0.125 C 5.25 0.125 5.859375 -1.46875 5.859375 -1.71875 Z M 5.859375 -1.71875 "/>
</symbol>
<symbol overflow="visible" id="myH5NumE9-0">
<path style="stroke:none;" d=""/>
</symbol>
<symbol overflow="visible" id="myH5NumE9-1">
<path style="stroke:none;" d="M 8.65625 -3 C 8.65625 -3.125 8.5625 -3.234375 8.421875 -3.234375 L 4.90625 -3.234375 L 4.90625 -6.75 C 4.90625 -6.890625 4.796875 -7 4.671875 -7 C 4.53125 -7 4.421875 -6.890625 4.421875 -6.75 L 4.421875 -3.234375 L 0.90625 -3.234375 C 0.78125 -3.234375 0.671875 -3.125 0.671875 -3 C 0.671875 -2.875 0.78125 -2.765625 0.90625 -2.765625 L 4.421875 -2.765625 L 4.421875 0.75 C 4.421875 0.890625 4.53125 1 4.671875 1 C 4.796875 1 4.90625 0.890625 4.90625 0.75 L 4.90625 -2.765625 L 8.421875 -2.765625 C 8.5625 -2.765625 8.65625 -2.875 8.65625 -3 Z M 8.65625 -3 "/>
</symbol>
<symbol overflow="visible" id="myH5NumE10-0">
<path style="stroke:none;" d=""/>
</symbol>
<symbol overflow="visible" id="myH5NumE10-1">
<path style="stroke:none;" d="M 4.984375 0.03125 L 6.15625 -4.6875 C 6.171875 -4.765625 6.1875 -4.828125 6.1875 -4.859375 C 6.1875 -4.984375 6.09375 -5.171875 5.859375 -5.171875 C 5.5 -5.171875 5.40625 -4.828125 5.390625 -4.734375 L 4.515625 -1.203125 C 4.421875 -0.859375 3.953125 -0.125 3.234375 -0.125 C 2.703125 -0.125 2.59375 -0.65625 2.59375 -1.0625 C 2.59375 -1.78125 2.984375 -2.875 3.28125 -3.6875 C 3.390625 -3.9375 3.4375 -4.109375 3.4375 -4.328125 C 3.4375 -4.9375 3.046875 -5.296875 2.53125 -5.296875 C 1.421875 -5.296875 1 -3.53125 1 -3.453125 C 1 -3.34375 1.109375 -3.34375 1.171875 -3.34375 C 1.328125 -3.34375 1.34375 -3.359375 1.390625 -3.53125 C 1.484375 -3.90625 1.8125 -5.046875 2.515625 -5.046875 C 2.640625 -5.046875 2.765625 -5 2.765625 -4.6875 C 2.765625 -4.40625 2.65625 -4.078125 2.484375 -3.609375 C 2.171875 -2.765625 1.859375 -1.890625 1.859375 -1.265625 C 1.859375 -0.21875 2.5625 0.125 3.203125 0.125 C 3.75 0.125 4.125 -0.15625 4.28125 -0.3125 C 3.828125 1.671875 2.9375 2.203125 2.34375 2.203125 C 1.765625 2.203125 1.59375 1.734375 1.59375 1.6875 C 1.59375 1.6875 1.609375 1.65625 1.6875 1.640625 C 2.0625 1.578125 2.203125 1.265625 2.203125 1.0625 C 2.203125 0.8125 2.015625 0.6875 1.796875 0.6875 C 1.65625 0.6875 1.1875 0.75 1.1875 1.421875 C 1.1875 2.046875 1.6875 2.453125 2.34375 2.453125 C 3.59375 2.453125 4.6875 1.21875 4.984375 0.03125 Z M 4.984375 0.03125 "/>
</symbol>
<symbol overflow="visible" id="myH5NumE11-0">
<path style="stroke:none;" d="M 0.59375 0 L 5.40625 0 L 5.40625 -6.4375 L 0.59375 -6.4375 Z M 1.203125 -0.59375 L 1.203125 -5.84375 L 4.796875 -5.84375 L 4.796875 -0.59375 Z M 1.203125 -0.59375 "/>
</symbol>
<symbol overflow="visible" id="myH5NumE11-1">
<path style="stroke:none;" d="M 4.3125 -1.53125 C 4.3125 -2.171875 3.953125 -2.53125 3.8125 -2.671875 C 3.421875 -3.0625 2.953125 -3.15625 2.453125 -3.25 C 1.78125 -3.390625 0.96875 -3.546875 0.96875 -4.234375 C 0.96875 -4.65625 1.28125 -5.140625 2.3125 -5.140625 C 3.640625 -5.140625 3.703125 -4.0625 3.71875 -3.703125 C 3.734375 -3.59375 3.859375 -3.59375 3.859375 -3.59375 C 4.015625 -3.59375 4.015625 -3.640625 4.015625 -3.875 L 4.015625 -5.09375 C 4.015625 -5.296875 4.015625 -5.375 3.890625 -5.375 C 3.828125 -5.375 3.796875 -5.375 3.640625 -5.234375 C 3.609375 -5.1875 3.484375 -5.078125 3.4375 -5.046875 C 2.984375 -5.375 2.5 -5.375 2.3125 -5.375 C 0.859375 -5.375 0.390625 -4.578125 0.390625 -3.90625 C 0.390625 -3.484375 0.59375 -3.140625 0.90625 -2.875 C 1.296875 -2.5625 1.625 -2.5 2.5 -2.328125 C 2.765625 -2.28125 3.75 -2.09375 3.75 -1.21875 C 3.75 -0.609375 3.328125 -0.125 2.390625 -0.125 C 1.375 -0.125 0.953125 -0.8125 0.71875 -1.84375 C 0.6875 -1.984375 0.671875 -2.046875 0.546875 -2.046875 C 0.390625 -2.046875 0.390625 -1.953125 0.390625 -1.734375 L 0.390625 -0.15625 C 0.390625 0.046875 0.390625 0.125 0.53125 0.125 C 0.59375 0.125 0.59375 0.125 0.828125 -0.109375 C 0.859375 -0.125 0.859375 -0.15625 1.0625 -0.390625 C 1.59375 0.125 2.140625 0.125 2.390625 0.125 C 3.765625 0.125 4.3125 -0.671875 4.3125 -1.53125 Z M 4.3125 -1.53125 "/>
</symbol>
<symbol overflow="visible" id="myH5NumE11-2">
<path style="stroke:none;" d="M 2.96875 0 L 2.96875 -0.375 C 2.171875 -0.375 2.125 -0.4375 2.125 -0.90625 L 2.125 -5.296875 L 0.4375 -5.171875 L 0.4375 -4.796875 C 1.21875 -4.796875 1.328125 -4.734375 1.328125 -4.140625 L 1.328125 -0.90625 C 1.328125 -0.375 1.203125 -0.375 0.390625 -0.375 L 0.390625 0 L 1.71875 -0.03125 C 2.140625 -0.03125 2.5625 -0.015625 2.96875 0 Z M 2.296875 -7.25 C 2.296875 -7.578125 2.03125 -7.890625 1.671875 -7.890625 C 1.265625 -7.890625 1.015625 -7.546875 1.015625 -7.25 C 1.015625 -6.921875 1.296875 -6.609375 1.65625 -6.609375 C 2.0625 -6.609375 2.296875 -6.953125 2.296875 -7.25 Z M 2.296875 -7.25 "/>
</symbol>
<symbol overflow="visible" id="myH5NumE11-3">
<path style="stroke:none;" d="M 3.96875 2.875 C 3.96875 2.84375 3.96875 2.8125 3.765625 2.609375 C 2.265625 1.109375 1.890625 -1.15625 1.890625 -3 C 1.890625 -5.09375 2.34375 -7.171875 3.8125 -8.671875 C 3.96875 -8.8125 3.96875 -8.84375 3.96875 -8.875 C 3.96875 -8.96875 3.921875 -9 3.859375 -9 C 3.734375 -9 2.65625 -8.1875 1.9375 -6.65625 C 1.328125 -5.34375 1.1875 -4.015625 1.1875 -3 C 1.1875 -2.0625 1.3125 -0.609375 1.984375 0.75 C 2.703125 2.21875 3.734375 3 3.859375 3 C 3.921875 3 3.96875 2.96875 3.96875 2.875 Z M 3.96875 2.875 "/>
</symbol>
<symbol overflow="visible" id="myH5NumE12-0">
<path style="stroke:none;" d="M 0.59375 0 L 5.40625 0 L 5.40625 -6.4375 L 0.59375 -6.4375 Z M 1.203125 -0.59375 L 1.203125 -5.84375 L 4.796875 -5.84375 L 4.796875 -0.59375 Z M 1.203125 -0.59375 "/>
</symbol>
<symbol overflow="visible" id="myH5NumE12-1">
<path style="stroke:none;" d="M 6.421875 0 L 6.421875 -0.375 C 5.796875 -0.375 5.5 -0.375 5.484375 -0.734375 L 5.484375 -3.03125 C 5.484375 -4.0625 5.484375 -4.421875 5.109375 -4.859375 C 4.9375 -5.0625 4.546875 -5.296875 3.859375 -5.296875 C 2.96875 -5.296875 2.40625 -4.78125 2.078125 -4.046875 L 2.078125 -5.296875 L 0.390625 -5.171875 L 0.390625 -4.796875 C 1.21875 -4.796875 1.3125 -4.71875 1.3125 -4.125 L 1.3125 -0.90625 C 1.3125 -0.375 1.1875 -0.375 0.390625 -0.375 L 0.390625 0 L 1.734375 -0.03125 L 3.078125 0 L 3.078125 -0.375 C 2.28125 -0.375 2.140625 -0.375 2.140625 -0.90625 L 2.140625 -3.125 C 2.140625 -4.375 3 -5.046875 3.765625 -5.046875 C 4.53125 -5.046875 4.65625 -4.390625 4.65625 -3.703125 L 4.65625 -0.90625 C 4.65625 -0.375 4.53125 -0.375 3.71875 -0.375 L 3.71875 0 L 5.078125 -0.03125 Z M 6.421875 0 "/>
</symbol>
<symbol overflow="visible" id="myH5NumE12-2">
<path style="stroke:none;" d="M 3.46875 -3 C 3.46875 -3.9375 3.34375 -5.390625 2.671875 -6.75 C 1.953125 -8.21875 0.921875 -9 0.796875 -9 C 0.734375 -9 0.6875 -8.953125 0.6875 -8.875 C 0.6875 -8.84375 0.6875 -8.8125 0.90625 -8.609375 C 2.09375 -7.421875 2.765625 -5.515625 2.765625 -3 C 2.765625 -0.953125 2.328125 1.15625 0.84375 2.671875 C 0.6875 2.8125 0.6875 2.84375 0.6875 2.875 C 0.6875 2.953125 0.734375 3 0.796875 3 C 0.921875 3 2 2.1875 2.71875 0.65625 C 3.328125 -0.65625 3.46875 -1.984375 3.46875 -3 Z M 3.46875 -3 "/>
</symbol>
<symbol overflow="visible" id="myH5NumE13-0">
<path style="stroke:none;" d=""/>
</symbol>
<symbol overflow="visible" id="myH5NumE13-1">
<path style="stroke:none;" d="M 5.8125 -1.71875 C 5.8125 -1.84375 5.71875 -1.84375 5.625 -1.84375 C 5.484375 -1.84375 5.46875 -1.828125 5.40625 -1.5625 C 5.25 -0.953125 5.015625 -0.125 4.484375 -0.125 C 4.15625 -0.125 4.140625 -0.40625 4.140625 -0.640625 C 4.140625 -0.921875 4.21875 -1.265625 4.234375 -1.3125 C 4.296875 -1.578125 4.296875 -1.578125 4.296875 -1.734375 C 4.296875 -2.5625 3.453125 -2.875 2.703125 -2.984375 C 2.96875 -3.15625 3.234375 -3.40625 3.546875 -3.78125 C 4.171875 -4.484375 4.640625 -5.046875 5.25 -5.046875 C 5.46875 -5.046875 5.5625 -4.890625 5.5625 -4.890625 C 5.0625 -4.8125 5 -4.390625 5 -4.296875 C 5 -4.140625 5.109375 -3.90625 5.421875 -3.90625 C 5.6875 -3.90625 6.03125 -4.125 6.03125 -4.578125 C 6.03125 -4.890625 5.8125 -5.296875 5.265625 -5.296875 C 4.625 -5.296875 4.109375 -4.796875 3.703125 -4.3125 C 3.03125 -3.53125 2.828125 -3.34375 2.40625 -3.125 L 3.640625 -8.03125 C 3.640625 -8.0625 3.671875 -8.1875 3.671875 -8.1875 C 3.671875 -8.296875 3.59375 -8.328125 3.5 -8.328125 C 3.46875 -8.328125 3.34375 -8.3125 3.3125 -8.296875 L 2.125 -8.203125 C 1.984375 -8.203125 1.84375 -8.1875 1.84375 -7.953125 C 1.84375 -7.828125 1.96875 -7.828125 2.140625 -7.828125 C 2.71875 -7.828125 2.734375 -7.734375 2.734375 -7.625 C 2.734375 -7.578125 2.703125 -7.421875 2.703125 -7.421875 L 0.921875 -0.34375 C 0.90625 -0.3125 0.90625 -0.1875 0.90625 -0.1875 C 0.90625 -0.046875 1.015625 0.125 1.234375 0.125 C 1.59375 0.125 1.6875 -0.203125 1.703125 -0.3125 L 2.3125 -2.75 C 2.765625 -2.6875 3.53125 -2.4375 3.53125 -1.734375 C 3.53125 -1.65625 3.53125 -1.609375 3.484375 -1.4375 C 3.4375 -1.234375 3.4375 -1.15625 3.4375 -1.03125 C 3.4375 -0.171875 4.015625 0.125 4.453125 0.125 C 4.984375 0.125 5.25 -0.265625 5.375 -0.484375 C 5.640625 -0.953125 5.8125 -1.6875 5.8125 -1.71875 Z M 5.8125 -1.71875 "/>
</symbol>
<symbol overflow="visible" id="myH5NumE14-0">
<path style="stroke:none;" d="M 0.359375 0 L 3.234375 0 L 3.234375 -3.875 L 0.359375 -3.875 Z M 0.71875 -0.359375 L 0.71875 -3.515625 L 2.875 -3.515625 L 2.875 -0.359375 Z M 0.71875 -0.359375 "/>
</symbol>
<symbol overflow="visible" id="myH5NumE14-1">
<path style="stroke:none;" d="M 3.234375 -1.25 L 3.046875 -1.25 C 3.015625 -1.03125 2.96875 -0.71875 2.890625 -0.609375 C 2.84375 -0.546875 2.375 -0.546875 2.21875 -0.546875 L 0.921875 -0.546875 L 1.671875 -1.296875 C 2.796875 -2.296875 3.234375 -2.671875 3.234375 -3.40625 C 3.234375 -4.21875 2.578125 -4.796875 1.703125 -4.796875 C 0.890625 -4.796875 0.359375 -4.140625 0.359375 -3.5 C 0.359375 -3.09375 0.71875 -3.09375 0.734375 -3.09375 C 0.859375 -3.09375 1.109375 -3.171875 1.109375 -3.46875 C 1.109375 -3.65625 0.984375 -3.84375 0.734375 -3.84375 C 0.671875 -3.84375 0.65625 -3.84375 0.640625 -3.84375 C 0.8125 -4.3125 1.203125 -4.578125 1.609375 -4.578125 C 2.265625 -4.578125 2.578125 -3.984375 2.578125 -3.40625 C 2.578125 -2.828125 2.21875 -2.25 1.828125 -1.8125 L 0.4375 -0.265625 C 0.359375 -0.1875 0.359375 -0.171875 0.359375 0 L 3.03125 0 Z M 3.234375 -1.25 "/>
</symbol>
</g>
</defs>
<g id="surface1">
<rect x="0" y="0" width="600" height="450" style="fill:rgb(100%,100%,100%);fill-opacity:1;stroke:none;"/>
<path style=" stroke:none;fill-rule:nonzero;fill:rgb(100%,100%,100%);fill-opacity:1;" d="M 30 417.75 L 588 417.75 L 588 51.75 L 30 51.75 Z M 30 417.75 "/>
<path style="fill:none;stroke-width:1;stroke-linecap:butt;stroke-linejoin:miter;stroke:rgb(0%,0%,0%);stroke-opacity:0.12;stroke-miterlimit:10;" d="M 182.578125 557 L 182.578125 69 " transform="matrix(0.75,0,0,0.75,0,0)"/>
<path style="fill:none;stroke-width:1;stroke-linecap:butt;stroke-linejoin:miter;stroke:rgb(0%,0%,0%);stroke-opacity:0.12;stroke-miterlimit:10;" d="M 443.75 557 L 443.75 69 " transform="matrix(0.75,0,0,0.75,0,0)"/>
<path style="fill:none;stroke-width:1;stroke-linecap:butt;stroke-linejoin:miter;stroke:rgb(0%,0%,0%);stroke-opacity:0.12;stroke-miterlimit:10;" d="M 704.916667 557 L 704.916667 69 " transform="matrix(0.75,0,0,0.75,0,0)"/>
<path style="fill:none;stroke-width:1;stroke-linecap:butt;stroke-linejoin:miter;stroke:rgb(0%,0%,0%);stroke-opacity:0.12;stroke-miterlimit:10;" d="M 40 476.505208 L 784 476.505208 " transform="matrix(0.75,0,0,0.75,0,0)"/>
<path style="fill:none;stroke-width:1;stroke-linecap:butt;stroke-linejoin:miter;stroke:rgb(0%,0%,0%);stroke-opacity:0.12;stroke-miterlimit:10;" d="M 40 367.036458 L 784 367.036458 " transform="matrix(0.75,0,0,0.75,0,0)"/>
<path style="fill:none;stroke-width:1;stroke-linecap:butt;stroke-linejoin:miter;stroke:rgb(0%,0%,0%);stroke-opacity:0.12;stroke-miterlimit:10;" d="M 40 257.567708 L 784 257.567708 " transform="matrix(0.75,0,0,0.75,0,0)"/>
<path style="fill:none;stroke-width:1;stroke-linecap:butt;stroke-linejoin:miter;stroke:rgb(0%,0%,0%);stroke-opacity:0.12;stroke-miterlimit:10;" d="M 40 148.098958 L 784 148.098958 " transform="matrix(0.75,0,0,0.75,0,0)"/>
<g style="fill:rgb(0%,0%,0%);fill-opacity:1;">
  <use xlink:href="#myH5NumE0-1" x="131.699219" y="435.640625"/>
</g>
<g style="fill:rgb(0%,0%,0%);fill-opacity:1;">
  <use xlink:href="#myH5NumE0-2" x="136.03125" y="435.640625"/>
</g>
<g style="fill:rgb(0%,0%,0%);fill-opacity:1;">
  <use xlink:href="#myH5NumE1-1" x="329.390625" y="435.640625"/>
</g>
<g style="fill:rgb(0%,0%,0%);fill-opacity:1;">
  <use xlink:href="#myH5NumE2-1" x="525.46875" y="435.640625"/>
</g>
<g style="fill:rgb(0%,0%,0%);fill-opacity:1;">
  <use xlink:href="#myH5NumE3-1" x="11.867188" y="361.53125"/>
</g>
<g style="fill:rgb(0%,0%,0%);fill-opacity:1;">
  <use xlink:href="#myH5NumE4-1" x="16.195312" y="361.53125"/>
</g>
<g style="fill:rgb(0%,0%,0%);fill-opacity:1;">
  <use xlink:href="#myH5NumE5-1" x="12.210938" y="279.429688"/>
</g>
<g style="fill:rgb(0%,0%,0%);fill-opacity:1;">
  <use xlink:href="#myH5NumE0-3" x="16.542969" y="279.429688"/>
</g>
<g style="fill:rgb(0%,0%,0%);fill-opacity:1;">
  <use xlink:href="#myH5NumE6-1" x="15.703125" y="197.328125"/>
</g>
<g style="fill:rgb(0%,0%,0%);fill-opacity:1;">
  <use xlink:href="#myH5NumE7-1" x="16.542969" y="115.226562"/>
</g>
<g style="fill:rgb(0%,0%,0%);fill-opacity:1;">
  <use xlink:href="#myH5NumE8-1" x="297.664062" y="25.667969"/>
</g>
<g style="fill:rgb(0%,0%,0%);fill-opacity:1;">
  <use xlink:href="#myH5NumE9-1" x="305.632812" y="25.667969"/>
</g>
<g style="fill:rgb(0%,0%,0%);fill-opacity:1;">
  <use xlink:href="#myH5NumE10-1" x="317.367188" y="25.667969"/>
</g>
<g style="fill:rgb(0%,0%,0%);fill-opacity:1;">
  <use xlink:href="#myH5NumE11-1" x="294.496094" y="45.269531"/>
</g>
<g style="fill:rgb(0%,0%,0%);fill-opacity:1;">
  <use xlink:href="#myH5NumE11-2" x="299.222656" y="45.269531"/>
</g>
<g style="fill:rgb(0%,0%,0%);fill-opacity:1;">
  <use xlink:href="#myH5NumE12-1" x="302.558594" y="45.269531"/>
</g>
<g style="fill:rgb(0%,0%,0%);fill-opacity:1;">
  <use xlink:href="#myH5NumE11-3" x="309.230469" y="45.269531"/>
</g>
<g style="fill:rgb(0%,0%,0%);fill-opacity:1;">
  <use xlink:href="#myH5NumE13-1" x="313.898438" y="45.269531"/>
</g>
<g style="fill:rgb(0%,0%,0%);fill-opacity:1;">
  <use xlink:href="#myH5NumE14-1" x="319.417969" y="38.09375"/>
</g>
<g style="fill:rgb(0%,0%,0%);fill-opacity:1;">
  <use xlink:href="#myH5NumE12-2" x="323.019531" y="45.269531"/>
</g>
<path style="fill:none;stroke-width:0.64;stroke-linecap:round;stroke-linejoin:miter;stroke:rgb(0%,0%,0%);stroke-opacity:1;stroke-miterlimit:10;" d="M 390.9375 40.947917 L 436.510417 40.947917 " transform="matrix(0.75,0,0,0.75,0,0)"/>
<path style=" stroke:none;fill-rule:nonzero;fill:rgb(0%,44.705883%,69.803923%);fill-opacity:1;" d="M 450.394531 122.554688 C 450.394531 127.054688 443.644531 127.054688 443.644531 122.554688 C 443.644531 118.054688 450.394531 118.054688 450.394531 122.554688 "/>
<path style=" stroke:none;fill-rule:nonzero;fill:rgb(0%,44.705883%,69.803923%);fill-opacity:1;" d="M 311.324219 318.824219 C 311.324219 323.324219 304.574219 323.324219 304.574219 318.824219 C 304.574219 314.324219 311.324219 314.324219 311.324219 318.824219 "/>
<path style=" stroke:none;fill-rule:nonzero;fill:rgb(0%,44.705883%,69.803923%);fill-opacity:1;" d="M 439.824219 187.414062 C 439.824219 191.914062 433.074219 191.914062 433.074219 187.414062 C 433.074219 182.914062 439.824219 182.914062 439.824219 187.414062 "/>
<path style=" stroke:none;fill-rule:nonzero;fill:rgb(0%,44.705883%,69.803923%);fill-opacity:1;" d="M 366.898438 186.226562 C 366.898438 190.726562 360.148438 190.726562 360.148438 186.226562 C 360.148438 181.726562 366.898438 181.726562 366.898438 186.226562 "/>
<path style=" stroke:none;fill-rule:nonzero;fill:rgb(0%,44.705883%,69.803923%);fill-opacity:1;" d="M 402.6875 224.53125 C 402.6875 229.03125 395.9375 229.03125 395.9375 224.53125 C 395.9375 220.03125 402.6875 220.03125 402.6875 224.53125 "/>
<path style=" stroke:none;fill-rule:nonzero;fill:rgb(0%,44.705883%,69.803923%);fill-opacity:1;" d="M 301.988281 216.015625 C 301.988281 220.515625 295.238281 220.515625 295.238281 216.015625 C 295.238281 211.515625 301.988281 211.515625 301.988281 216.015625 "/>
<path style=" stroke:none;fill-rule:nonzero;fill:rgb(0%,44.705883%,69.803923%);fill-opacity:1;" d="M 335.964844 142.359375 C 335.964844 146.859375 329.214844 146.859375 329.214844 142.359375 C 329.214844 137.859375 335.964844 137.859375 335.964844 142.359375 "/>
<path style=" stroke:none;fill-rule:nonzero;fill:rgb(0%,44.705883%,69.803923%);fill-opacity:1;" d="M 369.539062 192 C 369.539062 196.5 362.789062 196.5 362.789062 192 C 362.789062 187.5 369.539062 187.5 369.539062 192 "/>
<path style=" stroke:none;fill-rule:nonzero;fill:rgb(0%,44.705883%,69.803923%);fill-opacity:1;" d="M 308.265625 162.703125 C 308.265625 167.203125 301.515625 167.203125 301.515625 162.703125 C 301.515625 158.203125 308.265625 158.203125 308.265625 162.703125 "/>
<path style=" stroke:none;fill-rule:nonzero;fill:rgb(0%,44.705883%,69.803923%);fill-opacity:1;" d="M 566.011719 332.527344 C 566.011719 337.027344 559.261719 337.027344 559.261719 332.527344 C 559.261719 328.027344 566.011719 328.027344 566.011719 332.527344 "/>
<path style=" stroke:none;fill-rule:nonzero;fill:rgb(0%,44.705883%,69.803923%);fill-opacity:1;" d="M 290.4375 121.390625 C 290.4375 125.890625 283.6875 125.890625 283.6875 121.390625 C 283.6875 116.890625 290.4375 116.890625 290.4375 121.390625 "/>
<path style=" stroke:none;fill-rule:nonzero;fill:rgb(0%,44.705883%,69.803923%);fill-opacity:1;" d="M 381.328125 170.085938 C 381.328125 174.585938 374.578125 174.585938 374.578125 170.085938 C 374.578125 165.585938 381.328125 165.585938 381.328125 170.085938 "/>
<path style=" stroke:none;fill-rule:nonzero;fill:rgb(0%,44.705883%,69.803923%);fill-opacity:1;" d="M 323.597656 231.707031 C 323.597656 236.207031 316.847656 236.207031 316.847656 231.707031 C 316.847656 227.207031 323.597656 227.207031 323.597656 231.707031 "/>
<path style=" stroke:none;fill-rule:nonzero;fill:rgb(0%,44.705883%,69.803923%);fill-opacity:1;" d="M 486.652344 197.480469 C 486.652344 201.980469 479.902344 201.980469 479.902344 197.480469 C 479.902344 192.980469 486.652344 192.980469 486.652344 197.480469 "/>
<path style=" stroke:none;fill-rule:nonzero;fill:rgb(0%,44.705883%,69.803923%);fill-opacity:1;" d="M 386.695312 228.273438 C 386.695312 232.773438 379.945312 232.773438 379.945312 228.273438 C 379.945312 223.773438 386.695312 223.773438 386.695312 228.273438 "/>
<path style=" stroke:none;fill-rule:nonzero;fill:rgb(0%,44.705883%,69.803923%);fill-opacity:1;" d="M 297.691406 304.832031 C 297.691406 309.332031 290.941406 309.332031 290.941406 304.832031 C 290.941406 300.332031 297.691406 300.332031 297.691406 304.832031 "/>
<path style=" stroke:none;fill-rule:nonzero;fill:rgb(0%,44.705883%,69.803923%);fill-opacity:1;" d="M 168.226562 223.488281 C 168.226562 227.988281 161.476562 227.988281 161.476562 223.488281 C 161.476562 218.988281 168.226562 218.988281 168.226562 223.488281 "/>
<path style=" stroke:none;fill-rule:nonzero;fill:rgb(0%,44.705883%,69.803923%);fill-opacity:1;" d="M 375.75 254.84375 C 375.75 259.34375 369 259.34375 369 254.84375 C 369 250.34375 375.75 250.34375 375.75 254.84375 "/>
<path style=" stroke:none;fill-rule:nonzero;fill:rgb(0%,44.705883%,69.803923%);fill-opacity:1;" d="M 321.039062 238.464844 C 321.039062 242.964844 314.289062 242.964844 314.289062 238.464844 C 314.289062 233.964844 321.039062 233.964844 321.039062 238.464844 "/>
<path style=" stroke:none;fill-rule:nonzero;fill:rgb(0%,44.705883%,69.803923%);fill-opacity:1;" d="M 414.628906 144.394531 C 414.628906 148.894531 407.878906 148.894531 407.878906 144.394531 C 407.878906 139.894531 414.628906 139.894531 414.628906 144.394531 "/>
<path style=" stroke:none;fill-rule:nonzero;fill:rgb(0%,44.705883%,69.803923%);fill-opacity:1;" d="M 490.722656 68.386719 C 490.722656 72.886719 483.972656 72.886719 483.972656 68.386719 C 483.972656 63.886719 490.722656 63.886719 490.722656 68.386719 "/>
<path style=" stroke:none;fill-rule:nonzero;fill:rgb(0%,44.705883%,69.803923%);fill-opacity:1;" d="M 518.429688 204.425781 C 518.429688 208.925781 511.679688 208.925781 511.679688 204.425781 C 511.679688 199.925781 518.429688 199.925781 518.429688 204.425781 "/>
<path style=" stroke:none;fill-rule:nonzero;fill:rgb(0%,44.705883%,69.803923%);fill-opacity:1;" d="M 385.261719 256.25 C 385.261719 260.75 378.511719 260.75 378.511719 256.25 C 378.511719 251.75 385.261719 251.75 385.261719 256.25 "/>
<path style=" stroke:none;fill-rule:nonzero;fill:rgb(0%,44.705883%,69.803923%);fill-opacity:1;" d="M 146.375 157.964844 C 146.375 162.464844 139.625 162.464844 139.625 157.964844 C 139.625 153.464844 146.375 153.464844 146.375 157.964844 "/>
<path style=" stroke:none;fill-rule:nonzero;fill:rgb(0%,44.705883%,69.803923%);fill-opacity:1;" d="M 308.980469 75.453125 C 308.980469 79.953125 302.230469 79.953125 302.230469 75.453125 C 302.230469 70.953125 308.980469 70.953125 308.980469 75.453125 "/>
<path style=" stroke:none;fill-rule:nonzero;fill:rgb(0%,44.705883%,69.803923%);fill-opacity:1;" d="M 423.210938 249.695312 C 423.210938 254.195312 416.460938 254.195312 416.460938 249.695312 C 416.460938 245.195312 423.210938 245.195312 423.210938 249.695312 "/>
<path style=" stroke:none;fill-rule:nonzero;fill:rgb(0%,44.705883%,69.803923%);fill-opacity:1;" d="M 444.582031 136.730469 C 444.582031 141.230469 437.832031 141.230469 437.832031 136.730469 C 437.832031 132.230469 444.582031 132.230469 444.582031 136.730469 "/>
<path style=" stroke:none;fill-rule:nonzero;fill:rgb(0%,44.705883%,69.803923%);fill-opacity:1;" d="M 328.050781 210.425781 C 328.050781 214.925781 321.300781 214.925781 321.300781 210.425781 C 321.300781 205.925781 328.050781 205.925781 328.050781 210.425781 "/>
<path style=" stroke:none;fill-rule:nonzero;fill:rgb(0%,44.705883%,69.803923%);fill-opacity:1;" d="M 283.46875 307.554688 C 283.46875 312.054688 276.71875 312.054688 276.71875 307.554688 C 276.71875 303.054688 283.46875 303.054688 283.46875 307.554688 "/>
<path style=" stroke:none;fill-rule:nonzero;fill:rgb(0%,44.705883%,69.803923%);fill-opacity:1;" d="M 322.503906 158.972656 C 322.503906 163.472656 315.753906 163.472656 315.753906 158.972656 C 315.753906 154.472656 322.503906 154.472656 322.503906 158.972656 "/>
<path style=" stroke:none;fill-rule:nonzero;fill:rgb(0%,44.705883%,69.803923%);fill-opacity:1;" d="M 239.125 281.785156 C 239.125 286.285156 232.375 286.285156 232.375 281.785156 C 232.375 277.285156 239.125 277.285156 239.125 281.785156 "/>
<path style=" stroke:none;fill-rule:nonzero;fill:rgb(0%,44.705883%,69.803923%);fill-opacity:1;" d="M 460.75 172.820312 C 460.75 177.320312 454 177.320312 454 172.820312 C 454 168.320312 460.75 168.320312 460.75 172.820312 "/>
<path style=" stroke:none;fill-rule:nonzero;fill:rgb(0%,44.705883%,69.803923%);fill-opacity:1;" d="M 294.734375 109.011719 C 294.734375 113.511719 287.984375 113.511719 287.984375 109.011719 C 287.984375 104.511719 294.734375 104.511719 294.734375 109.011719 "/>
<path style=" stroke:none;fill-rule:nonzero;fill:rgb(0%,44.705883%,69.803923%);fill-opacity:1;" d="M 58.738281 248.136719 C 58.738281 252.636719 51.988281 252.636719 51.988281 248.136719 C 51.988281 243.636719 58.738281 243.636719 58.738281 248.136719 "/>
<path style=" stroke:none;fill-rule:nonzero;fill:rgb(0%,44.705883%,69.803923%);fill-opacity:1;" d="M 336.226562 174.148438 C 336.226562 178.648438 329.476562 178.648438 329.476562 174.148438 C 329.476562 169.648438 336.226562 169.648438 336.226562 174.148438 "/>
<path style=" stroke:none;fill-rule:nonzero;fill:rgb(0%,44.705883%,69.803923%);fill-opacity:1;" d="M 251.101562 172.25 C 251.101562 176.75 244.351562 176.75 244.351562 172.25 C 244.351562 167.75 251.101562 167.75 251.101562 172.25 "/>
<path style=" stroke:none;fill-rule:nonzero;fill:rgb(0%,44.705883%,69.803923%);fill-opacity:1;" d="M 502.71875 221.140625 C 502.71875 225.640625 495.96875 225.640625 495.96875 221.140625 C 495.96875 216.640625 502.71875 216.640625 502.71875 221.140625 "/>
<path style=" stroke:none;fill-rule:nonzero;fill:rgb(0%,44.705883%,69.803923%);fill-opacity:1;" d="M 252.847656 140.789062 C 252.847656 145.289062 246.097656 145.289062 246.097656 140.789062 C 246.097656 136.289062 252.847656 136.289062 252.847656 140.789062 "/>
<path style=" stroke:none;fill-rule:nonzero;fill:rgb(0%,44.705883%,69.803923%);fill-opacity:1;" d="M 342.515625 187.621094 C 342.515625 192.121094 335.765625 192.121094 335.765625 187.621094 C 335.765625 183.121094 342.515625 183.121094 342.515625 187.621094 "/>
<path style=" stroke:none;fill-rule:nonzero;fill:rgb(0%,44.705883%,69.803923%);fill-opacity:1;" d="M 484.941406 206.875 C 484.941406 211.375 478.191406 211.375 478.191406 206.875 C 478.191406 202.375 484.941406 202.375 484.941406 206.875 "/>
<path style=" stroke:none;fill-rule:nonzero;fill:rgb(0%,44.705883%,69.803923%);fill-opacity:1;" d="M 399.648438 401.113281 C 399.648438 405.613281 392.898438 405.613281 392.898438 401.113281 C 392.898438 396.613281 399.648438 396.613281 399.648438 401.113281 "/>
<path style=" stroke:none;fill-rule:nonzero;fill:rgb(0%,44.705883%,69.803923%);fill-opacity:1;" d="M 266.074219 171.507812 C 266.074219 176.007812 259.324219 176.007812 259.324219 171.507812 C 259.324219 167.007812 266.074219 167.007812 266.074219 171.507812 "/>
<path style=" stroke:none;fill-rule:nonzero;fill:rgb(0%,44.705883%,69.803923%);fill-opacity:1;" d="M 279.339844 92.289062 C 279.339844 96.789062 272.589844 96.789062 272.589844 92.289062 C 272.589844 87.789062 279.339844 87.789062 279.339844 92.289062 "/>
<path style=" stroke:none;fill-rule:nonzero;fill:rgb(0%,44.705883%,69.803923%);fill-opacity:1;" d="M 297.484375 111.164062 C 297.484375 115.664062 290.734375 115.664062 290.734375 111.164062 C 290.734375 106.664062 297.484375 106.664062 297.484375 111.164062 "/>
<path style=" stroke:none;fill-rule:nonzero;fill:rgb(0%,44.705883%,69.803923%);fill-opacity:1;" d="M 349.28125 181.132812 C 349.28125 185.632812 342.53125 185.632812 342.53125 181.132812 C 342.53125 176.632812 349.28125 176.632812 349.28125 181.132812 "/>
<path style=" stroke:none;fill-rule:nonzero;fill:rgb(0%,44.705883%,69.803923%);fill-opacity:1;" d="M 349.625 223.632812 C 349.625 228.132812 342.875 228.132812 342.875 223.632812 C 342.875 219.132812 349.625 219.132812 349.625 223.632812 "/>
<path style=" stroke:none;fill-rule:nonzero;fill:rgb(0%,44.705883%,69.803923%);fill-opacity:1;" d="M 500.574219 112.65625 C 500.574219 117.15625 493.824219 117.15625 493.824219 112.65625 C 493.824219 108.15625 500.574219 108.15625 500.574219 112.65625 "/>
<path style=" stroke:none;fill-rule:nonzero;fill:rgb(0%,44.705883%,69.803923%);fill-opacity:1;" d="M 553.746094 126.945312 C 553.746094 131.445312 546.996094 131.445312 546.996094 126.945312 C 546.996094 122.445312 553.746094 122.445312 553.746094 126.945312 "/>
<path style=" stroke:none;fill-rule:nonzero;fill:rgb(0%,44.705883%,69.803923%);fill-opacity:1;" d="M 499.007812 243.574219 C 499.007812 248.074219 492.257812 248.074219 492.257812 243.574219 C 492.257812 239.074219 499.007812 239.074219 499.007812 243.574219 "/>
<path style=" stroke:none;fill-rule:nonzero;fill:rgb(0%,44.705883%,69.803923%);fill-opacity:1;" d="M 559.472656 112.816406 C 559.472656 117.316406 552.722656 117.316406 552.722656 112.816406 C 552.722656 108.316406 559.472656 108.316406 559.472656 112.816406 "/>
<path style="fill:none;stroke-width:1;stroke-linecap:butt;stroke-linejoin:miter;stroke:rgb(0%,0%,0%);stroke-opacity:1;stroke-miterlimit:10;" d="M 182.578125 557.5 L 182.578125 563.5 " transform="matrix(0.75,0,0,0.75,0,0)"/>
<path style="fill:none;stroke-width:1;stroke-linecap:butt;stroke-linejoin:miter;stroke:rgb(0%,0%,0%);stroke-opacity:1;stroke-miterlimit:10;" d="M 443.75 557.5 L 443.75 563.5 " transform="matrix(0.75,0,0,0.75,0,0)"/>
<path style="fill:none;stroke-width:1;stroke-linecap:butt;stroke-linejoin:miter;stroke:rgb(0%,0%,0%);stroke-opacity:1;stroke-miterlimit:10;" d="M 704.916667 557.5 L 704.916667 563.5 " transform="matrix(0.75,0,0,0.75,0,0)"/>
<path style="fill:none;stroke-width:1;stroke-linecap:butt;stroke-linejoin:miter;stroke:rgb(0%,0%,0%);stroke-opacity:1;stroke-miterlimit:10;" d="M 39.5 476.505208 L 33.5 476.505208 " transform="matrix(0.75,0,0,0.75,0,0)"/>
<path style="fill:none;stroke-width:1;stroke-linecap:butt;stroke-linejoin:miter;stroke:rgb(0%,0%,0%);stroke-opacity:1;stroke-miterlimit:10;" d="M 39.5 367.036458 L 33.5 367.036458 " transform="matrix(0.75,0,0,0.75,0,0)"/>
<path style="fill:none;stroke-width:1;stroke-linecap:butt;stroke-linejoin:miter;stroke:rgb(0%,0%,0%);stroke-opacity:1;stroke-miterlimit:10;" d="M 39.5 257.567708 L 33.5 257.567708 " transform="matrix(0.75,0,0,0.75,0,0)"/>
<path style="fill:none;stroke-width:1;stroke-linecap:butt;stroke-linejoin:miter;stroke:rgb(0%,0%,0%);stroke-opacity:1;stroke-miterlimit:10;" d="M 39.5 148.098958 L 33.5 148.098958 " transform="matrix(0.75,0,0,0.75,0,0)"/>
<path style="fill:none;stroke-width:1;stroke-linecap:butt;stroke-linejoin:miter;stroke:rgb(0%,0%,0%);stroke-opacity:1;stroke-miterlimit:10;" d="M 39.5 557 L 784.5 557 " transform="matrix(0.75,0,0,0.75,0,0)"/>
<path style="fill:none;stroke-width:1;stroke-linecap:butt;stroke-linejoin:miter;stroke:rgb(0%,0%,0%);stroke-opacity:1;stroke-miterlimit:10;" d="M 40 557.5 L 40 68.5 " transform="matrix(0.75,0,0,0.75,0,0)"/>
<path style="fill:none;stroke-width:1;stroke-linecap:butt;stroke-linejoin:miter;stroke:rgb(0%,0%,0%);stroke-opacity:1;stroke-miterlimit:10;" d="M 39.5 69 L 784.5 69 " transform="matrix(0.75,0,0,0.75,0,0)"/>
<path style="fill:none;stroke-width:1;stroke-linecap:butt;stroke-linejoin:miter;stroke:rgb(0%,0%,0%);stroke-opacity:1;stroke-miterlimit:10;" d="M 784 557.5 L 784 68.5 " transform="matrix(0.75,0,0,0.75,0,0)"/>
</g>
</svg>
